<svg width="58" height="58" viewBox="0 0 58 58" fill="none" xmlns="http://www.w3.org/2000/svg">
<g filter="url(#filter0_d_443_1099)">
<rect x="5.5" y="3.5" width="47" height="47" rx="23.5" stroke="CurrentColor" shape-rendering="crispEdges"/>
<path d="M21.3929 16.5C19.7973 16.5 18.5 17.7973 18.5 19.3929V33.8571C18.5 35.4527 19.7973 36.75 21.3929 36.75H25.8316V30.1597H23.445V26.625H25.8316V25.1017C25.8316 21.1647 27.6125 19.3386 31.4817 19.3386C32.214 19.3386 33.4796 19.4833 33.9994 19.6279V22.8281C33.7282 22.801 33.2536 22.7829 32.6614 22.7829C30.763 22.7829 30.0307 23.5016 30.0307 25.3684V26.625H33.8095L33.1586 30.1597H30.0262V36.75H35.8571C37.4527 36.75 38.75 35.4527 38.75 33.8571V19.3929C38.75 17.7973 37.4527 16.5 35.8571 16.5H21.3929Z" fill="CurrentColor"/>
</g>
<defs>
<filter id="filter0_d_443_1099" x="0" y="0" width="58" height="58" filterUnits="userSpaceOnUse" color-interpolation-filters="sRGB">
<feFlood flood-opacity="0" result="BackgroundImageFix"/>
<feColorMatrix in="SourceAlpha" type="matrix" values="0 0 0 0 0 0 0 0 0 0 0 0 0 0 0 0 0 0 127 0" result="hardAlpha"/>
<feOffset dy="2"/>
<feGaussianBlur stdDeviation="2.5"/>
<feComposite in2="hardAlpha" operator="out"/>
<feColorMatrix type="matrix" values="0 0 0 0 0.0627451 0 0 0 0 0.0941176 0 0 0 0 0.156863 0 0 0 0.12 0"/>
<feBlend mode="normal" in2="BackgroundImageFix" result="effect1_dropShadow_443_1099"/>
<feBlend mode="normal" in="SourceGraphic" in2="effect1_dropShadow_443_1099" result="shape"/>
</filter>
</defs>
</svg>
