<svg width="58" height="58" viewBox="0 0 58 58" fill="none" xmlns="http://www.w3.org/2000/svg">
<g filter="url(#filter0_d_443_1101)">
<rect x="5.5" y="3.5" width="47" height="47" rx="23.5" stroke="CurrentColor" shape-rendering="crispEdges"/>
<path d="M27.2871 24.4976C27.0238 24.6736 26.7978 24.8997 26.6219 25.1631C26.4461 25.4264 26.3238 25.7218 26.2621 26.0324C26.1375 26.6597 26.2672 27.3108 26.6226 27.8425C26.978 28.3741 27.5301 28.7428 28.1574 28.8674C28.7847 28.992 29.4358 28.8624 29.9675 28.5069C30.4991 28.1515 30.8678 27.5994 30.9924 26.9721C31.117 26.3448 30.9874 25.6937 30.6319 25.1621C30.2765 24.6304 29.7244 24.2617 29.0971 24.1371C28.4698 24.0125 27.8187 24.1422 27.2871 24.4976ZM33.7191 21.4059C33.4841 21.1708 33.1993 20.9855 32.8874 20.8634C32.0693 20.5425 30.2839 20.5561 29.1312 20.5696C28.9459 20.5696 28.7742 20.5742 28.625 20.5742C28.4758 20.5742 28.2996 20.5742 28.1097 20.5696C26.9571 20.5561 25.1807 20.538 24.3626 20.8634C24.0507 20.9855 23.7704 21.1708 23.5309 21.4059C23.2913 21.6409 23.1105 21.9257 22.9884 22.2376C22.6675 23.0557 22.6856 24.8456 22.6946 25.9983C22.6946 26.1836 22.6992 26.3554 22.6992 26.5C22.6992 26.6446 22.6992 26.8164 22.6946 27.0017C22.6856 28.1544 22.6675 29.9443 22.9884 30.7624C23.1105 31.0743 23.2958 31.3546 23.5309 31.5941C23.7659 31.8337 24.0507 32.0145 24.3626 32.1366C25.1807 32.4575 26.9661 32.4439 28.1187 32.4304C28.3041 32.4304 28.4758 32.4258 28.625 32.4258C28.7742 32.4258 28.9504 32.4258 29.1403 32.4304C30.2929 32.4439 32.0693 32.462 32.8874 32.1366C33.1993 32.0145 33.4796 31.8292 33.7191 31.5941C33.9587 31.3591 34.1395 31.0743 34.2616 30.7624C34.587 29.9488 34.5689 28.1679 34.5554 27.0108C34.5554 26.8209 34.5508 26.6446 34.5508 26.4955C34.5508 26.3463 34.5508 26.1746 34.5554 25.9802C34.5689 24.8276 34.587 23.0467 34.2616 22.2285C34.1395 21.9166 33.9542 21.6364 33.7191 21.3968V21.4059ZM30.6862 23.4173C31.5037 23.964 32.0707 24.813 32.2623 25.7777C32.4538 26.7423 32.2544 27.7436 31.7077 28.5612C31.437 28.966 31.0893 29.3135 30.6843 29.584C30.2793 29.8544 29.825 30.0424 29.3473 30.1373C28.3827 30.3288 27.3814 30.1294 26.5638 29.5827C25.7463 29.0366 25.1791 28.1882 24.9871 27.2239C24.7951 26.2597 24.994 25.2587 25.54 24.4411C26.0861 23.6235 26.9346 23.0563 27.8988 22.8643C28.863 22.6723 29.8641 22.8712 30.6816 23.4173H30.6862ZM32.006 23.3585C31.8659 23.2636 31.7529 23.128 31.6851 22.9698C31.6173 22.8116 31.6037 22.6398 31.6354 22.4681C31.667 22.2963 31.7529 22.1472 31.8704 22.0251C31.9879 21.9031 32.1461 21.8217 32.3134 21.7901C32.4806 21.7584 32.6569 21.772 32.8151 21.8398C32.9733 21.9076 33.1089 22.0161 33.2038 22.1562C33.2988 22.2963 33.3485 22.4636 33.3485 22.6353C33.3485 22.7483 33.3259 22.8613 33.2852 22.9653C33.2445 23.0693 33.1767 23.1642 33.0999 23.2455C33.023 23.3269 32.9236 23.3902 32.8196 23.4354C32.7157 23.4806 32.6027 23.5032 32.4897 23.5032C32.3179 23.5032 32.1507 23.4535 32.0105 23.3585H32.006ZM38.75 19.2679C38.75 17.6723 37.4527 16.375 35.8571 16.375H21.3929C19.7973 16.375 18.5 17.6723 18.5 19.2679V33.7321C18.5 35.3277 19.7973 36.625 21.3929 36.625H35.8571C37.4527 36.625 38.75 35.3277 38.75 33.7321V19.2679ZM34.6367 32.5117C33.7915 33.357 32.7654 33.6237 31.6083 33.6824C30.415 33.7502 26.835 33.7502 25.6417 33.6824C24.4846 33.6237 23.4585 33.357 22.6133 32.5117C21.768 31.6665 21.5013 30.6404 21.4471 29.4833C21.3793 28.29 21.3793 24.71 21.4471 23.5167C21.5059 22.3596 21.768 21.3335 22.6133 20.4883C23.4585 19.643 24.4891 19.3763 25.6417 19.3221C26.835 19.2543 30.415 19.2543 31.6083 19.3221C32.7654 19.3809 33.7915 19.643 34.6367 20.4883C35.482 21.3335 35.7487 22.3596 35.8029 23.5167C35.8707 24.7055 35.8707 28.2809 35.8029 29.4787C35.7441 30.6359 35.482 31.6619 34.6367 32.5072V32.5117Z" fill="CurrentColor"/>
</g>
<defs>
<filter id="filter0_d_443_1101" x="0" y="0" width="58" height="58" filterUnits="userSpaceOnUse" color-interpolation-filters="sRGB">
<feFlood flood-opacity="0" result="BackgroundImageFix"/>
<feColorMatrix in="SourceAlpha" type="matrix" values="0 0 0 0 0 0 0 0 0 0 0 0 0 0 0 0 0 0 127 0" result="hardAlpha"/>
<feOffset dy="2"/>
<feGaussianBlur stdDeviation="2.5"/>
<feComposite in2="hardAlpha" operator="out"/>
<feColorMatrix type="matrix" values="0 0 0 0 0.0627451 0 0 0 0 0.0941176 0 0 0 0 0.156863 0 0 0 0.12 0"/>
<feBlend mode="normal" in2="BackgroundImageFix" result="effect1_dropShadow_443_1101"/>
<feBlend mode="normal" in="SourceGraphic" in2="effect1_dropShadow_443_1101" result="shape"/>
</filter>
</defs>
</svg>
