<svg width="230" height="60" viewBox="0 0 230 60" fill="none" xmlns="http://www.w3.org/2000/svg">
<g filter="url(#filter0_d_462_266)">
<mask id="path-1-outside-1_462_266" maskUnits="userSpaceOnUse" x="0" y="22.406" width="177" height="33" fill="black">
<rect fill="white" y="22.406" width="177" height="33"/>
<path d="M16.8493 45.5059C16.6648 47.1968 16.5725 49.1077 16.5725 51.2388L16.4468 51.4125L7.30196 51.3083C5.77573 51.3083 4.69814 51.343 4.0692 51.4125L3.94341 51.2388V50.7523L4.00631 50.5439C4.62686 49.9995 4.9623 49.6579 5.01261 49.5189C5.08808 49.2988 5.13421 48.5287 5.15098 47.2084L5.18871 43.3169V34.5091C5.18871 31.7527 5.13421 29.9576 5.02519 29.1237C4.98326 28.7878 4.8407 28.5736 4.59751 28.4809C4.47172 28.4346 3.98115 28.3767 3.12579 28.3072L3 28.1335V26.9521L3.12579 26.7958C3.97276 26.8653 5.28096 26.9 7.05038 26.9C8.62692 26.9 11.6249 26.8653 16.0442 26.7958L16.1826 26.9348L16.0191 28.8631C15.9688 29.4769 15.931 29.9981 15.9059 30.4266L15.8178 32.0423L15.692 32.2334H14.9625L14.8367 32.0596C14.8283 30.4845 14.7612 29.587 14.6354 29.3669C14.5432 29.2048 14.0903 29.0774 13.2769 28.9847C12.4718 28.8921 11.7632 28.8457 11.1511 28.8457C10.4215 28.8457 9.68355 28.8863 8.9372 28.9673C8.84496 30.1834 8.79884 31.8685 8.79884 34.0227V37.6188C9.46132 37.6767 9.99802 37.7057 10.4089 37.7057L12.0567 37.6883C12.8282 37.6767 13.2643 37.5898 13.3649 37.4277C13.4991 37.2192 13.5872 36.4375 13.6291 35.0824L13.7549 34.9087H14.5348L14.6606 35.0824C14.627 36.3796 14.6102 37.5667 14.6102 38.6438C14.6102 39.8135 14.627 41.0933 14.6606 42.4831L14.5348 42.6394H13.692L13.5662 42.4657C13.5662 41.1338 13.4991 40.3463 13.3649 40.1031C13.2308 39.8483 12.8241 39.6803 12.1448 39.5993C11.6333 39.5413 11.0882 39.5124 10.5096 39.5124C9.89739 39.5124 9.32715 39.5413 8.79884 39.5993V44.8978C8.79884 46.415 8.8198 47.8859 8.86173 49.3104H10.5724C13.0211 49.3104 14.5222 49.1772 15.0757 48.9109C15.1679 48.8645 15.235 48.8008 15.2769 48.7198C15.3608 48.5576 15.4405 48.2102 15.5159 47.6774L15.8178 45.5232L15.9436 45.3321H16.7109L16.8493 45.5059Z"/>
<path d="M36.2091 51.2388L36.0959 51.4125C34.2342 51.343 33.1105 51.3083 32.7248 51.3083C31.1818 51.3083 29.7478 51.343 28.4228 51.4125L28.3096 51.2388V50.1443L28.4354 49.9532L29.5297 49.8663C29.991 49.8316 30.2216 49.6058 30.2216 49.1888C30.2216 48.9456 30.1042 48.4013 29.8694 47.5558L28.8505 43.8902C27.6932 43.8671 26.5108 43.8555 25.3032 43.8555C24.6492 43.8555 23.6764 43.8671 22.385 43.8902L21.8315 46.0097C21.4122 47.6195 21.2026 48.6271 21.2026 49.0325C21.2026 49.4726 21.3996 49.7332 21.7938 49.8142C22.0118 49.8606 22.4395 49.9069 23.0768 49.9532L23.2026 50.1269V51.2388L23.0768 51.4125C21.5254 51.343 20.5275 51.3083 20.083 51.3083C19.7392 51.3083 18.8881 51.343 17.5295 51.4125L17.4038 51.2561V50.1269L17.5421 49.9532C18.4059 49.8837 18.9342 49.6463 19.1271 49.2409C19.3283 48.8356 20.0705 46.4208 21.3535 41.9966L24.6366 30.6525C24.8798 29.7723 25.2487 28.4462 25.7435 26.6742H27.5297L34.1965 48.3376C34.4564 49.1599 34.6912 49.6231 34.9009 49.7274C35.1776 49.8663 35.576 49.9358 36.0959 49.9358L36.2091 50.1269V51.2388ZM28.2341 41.8924L25.5422 32.7893L22.9636 41.8924C23.6512 41.9272 24.5443 41.9445 25.6429 41.9445C26.7079 41.9445 27.5716 41.9272 28.2341 41.8924Z"/>
<path d="M50.1977 43.2822C50.1977 45.1932 49.8036 46.8783 49.0153 48.3376C48.3277 49.6231 47.4262 50.5786 46.3109 51.204C45.2878 51.7831 44.0677 52.0726 42.6504 52.0726C40.8894 52.0726 39.1619 51.5167 37.468 50.4049L37.317 50.0227C37.5518 48.6908 37.6692 46.7972 37.6692 44.3419L37.795 44.1682H38.6001L38.7133 44.3419V44.7415C38.7133 45.3901 38.7636 46.2471 38.8642 47.3126C39.1661 48.0538 39.707 48.6908 40.4869 49.2236C41.3003 49.7795 42.1473 50.0574 43.0278 50.0574C44.6882 50.0574 45.8371 49.2583 46.4744 47.66C46.8015 46.8378 46.965 45.9865 46.965 45.1063C46.965 43.6239 46.5163 42.5641 45.619 41.9272C45.1746 41.6145 44.4576 41.3539 43.4681 41.1454C41.229 40.6705 39.7573 40.0741 39.0529 39.356C37.9879 38.2674 37.4554 36.5822 37.4554 34.3007C37.4554 31.9264 38.034 30.0328 39.1913 28.6199C40.4156 27.1374 42.1179 26.3962 44.2983 26.3962C46.2606 26.3962 47.8455 26.8305 49.0531 27.6992L49.1411 28.1161C48.9399 29.4943 48.8183 31.1505 48.7763 33.0846L48.638 33.2583H47.8455L47.7197 33.0846C47.6946 31.6948 47.6526 30.7914 47.5939 30.3745C47.334 29.8302 46.8811 29.3669 46.2354 28.9847C45.5478 28.5909 44.8308 28.394 44.0844 28.394C42.9607 28.394 42.0718 28.8052 41.4177 29.6275C40.8055 30.4035 40.4995 31.4053 40.4995 32.6329C40.4995 33.9648 40.8475 34.9434 41.5435 35.5689C41.9963 35.9742 43.0655 36.3622 44.7511 36.7328C44.9272 36.7675 45.4178 36.8834 46.2228 37.0803C46.7176 37.1961 47.1746 37.364 47.5939 37.5841C48.4409 38.0242 49.0782 38.6959 49.5059 39.5993C49.9671 40.5837 50.1977 41.8113 50.1977 43.2822Z"/>
<path d="M67.4946 27.6123C66.1697 30.1023 64.7189 33.1541 63.1423 36.7675C62.2534 38.8059 61.7629 40.1088 61.6706 40.6763C61.6203 40.9775 61.5952 41.4118 61.5952 41.9793V43.6991C61.5952 47.0926 61.6706 48.9804 61.8216 49.3625C61.8887 49.5247 61.9851 49.6289 62.1109 49.6752C62.3205 49.7563 62.8363 49.8316 63.6581 49.9011L63.7839 50.0748V51.2388L63.6581 51.4125C62.8279 51.343 61.5365 51.3083 59.7838 51.3083C57.9892 51.3083 56.6978 51.343 55.9095 51.4125L55.7963 51.2561V50.0748L55.9221 49.9011C56.7439 49.8316 57.2597 49.7563 57.4693 49.6752C57.5951 49.6289 57.6915 49.5247 57.7586 49.3625C57.9096 48.9804 57.985 47.0926 57.985 43.6991V41.6492C57.985 41.2091 57.3267 39.4487 56.0102 36.368C54.6684 33.2294 53.5992 31.0984 52.8026 29.9749C52.4168 29.4306 52.1568 29.1237 52.0227 29.0542C51.8885 28.9731 51.574 28.9326 51.0793 28.9326L50.9409 28.7415V27.7686L51.0667 27.5775C53.1128 27.0216 54.4252 26.6279 55.0039 26.3962C55.4399 26.6858 55.8299 27.0622 56.1737 27.5254C56.8865 28.4867 57.8425 30.6293 59.0417 33.9532L60.6895 38.5048C61.1842 37.4045 62.1277 35.1925 63.5197 31.8685L64.916 28.4114C65.0669 28.0292 65.2724 27.5023 65.5323 26.8305H67.3688L67.4946 27.0043V27.6123Z"/>
<path d="M69.6437 51.3082V25.8403H83.3169V30.1486H73.3671V35.7947H82.6251V40.0857H73.3671V47.0172H83.6691V51.3082H69.6437Z"/>
<path d="M85.8337 51.3082V25.8403H89.4564L97.0037 42.8479V25.8403H100.463V51.3082H96.7269L89.2928 34.7002V51.3082H85.8337Z"/>
<path d="M111.961 41.9445V37.6535H119.986V47.799C119.206 48.8414 118.074 49.7621 116.59 50.5612C115.114 51.3488 113.617 51.7425 112.099 51.7425C110.17 51.7425 108.489 51.1866 107.055 50.0748C105.621 48.9514 104.544 47.3531 103.822 45.28C103.101 43.1953 102.741 40.9311 102.741 38.4874C102.741 35.8352 103.143 33.4784 103.948 31.4168C104.753 29.3553 105.931 27.7744 107.483 26.6742C108.665 25.8287 110.137 25.406 111.898 25.406C114.187 25.406 115.974 26.0719 117.257 27.4038C118.548 28.7241 119.378 30.554 119.747 32.8935L116.049 33.849C115.789 32.5981 115.298 31.6137 114.577 30.8957C113.864 30.166 112.971 29.8012 111.898 29.8012C110.271 29.8012 108.976 30.5135 108.011 31.938C107.055 33.3625 106.577 35.4762 106.577 38.2789C106.577 41.3017 107.064 43.5717 108.036 45.0889C109.009 46.5945 110.284 47.3473 111.86 47.3473C112.64 47.3473 113.42 47.1389 114.2 46.7219C114.988 46.2934 115.663 45.778 116.225 45.1758V41.9445H111.961Z"/>
<path d="M122.503 51.3082V26.0488H126.226V47.0172H135.484V51.3082H122.503Z"/>
<path d="M137.007 51.3082V25.8403H140.731V51.3082H137.007Z"/>
<path d="M142.317 43.0216L145.939 42.5352C146.157 44.2145 146.598 45.4479 147.26 46.2355C147.931 47.023 148.832 47.4168 149.965 47.4168C151.164 47.4168 152.065 47.0694 152.669 46.3745C153.281 45.668 153.587 44.8457 153.587 43.9076C153.587 43.3053 153.457 42.7958 153.197 42.3788C152.946 41.9503 152.501 41.5797 151.864 41.267C151.428 41.0585 150.434 40.6879 148.883 40.1551C146.887 39.4718 145.486 38.6322 144.681 37.6361C143.549 36.2348 142.983 34.5265 142.983 32.5113C142.983 31.2141 143.247 30.0039 143.776 28.8805C144.312 27.7455 145.08 26.8826 146.078 26.292C147.084 25.7013 148.296 25.406 149.713 25.406C152.027 25.406 153.768 26.1067 154.933 27.508C156.107 28.9094 156.724 30.7798 156.782 33.1193L153.059 33.3452C152.9 32.0364 152.556 31.0983 152.027 30.5308C151.508 29.9518 150.723 29.6622 149.675 29.6622C148.593 29.6622 147.746 29.9691 147.134 30.5829C146.74 30.9767 146.543 31.5037 146.543 32.1638C146.543 32.7661 146.728 33.2815 147.097 33.71C147.566 34.2543 148.707 34.8218 150.518 35.4125C152.329 36.0031 153.667 36.617 154.531 37.254C155.403 37.8794 156.082 38.7422 156.568 39.8424C157.063 40.9311 157.311 42.2804 157.311 43.8902C157.311 45.3495 157.017 46.7161 156.43 47.9901C155.843 49.2641 155.013 50.2138 153.939 50.8392C152.866 51.453 151.528 51.7599 149.927 51.7599C147.595 51.7599 145.805 51.0187 144.556 49.5362C143.306 48.0422 142.56 45.8707 142.317 43.0216Z"/>
<path d="M159.425 51.3082V25.8403H163.148V35.8642H170.444V25.8403H174.167V51.3082H170.444V40.1725H163.148V51.3082H159.425Z"/>
</mask>
<path d="M16.8493 45.5059C16.6648 47.1968 16.5725 49.1077 16.5725 51.2388L16.4468 51.4125L7.30196 51.3083C5.77573 51.3083 4.69814 51.343 4.0692 51.4125L3.94341 51.2388V50.7523L4.00631 50.5439C4.62686 49.9995 4.9623 49.6579 5.01261 49.5189C5.08808 49.2988 5.13421 48.5287 5.15098 47.2084L5.18871 43.3169V34.5091C5.18871 31.7527 5.13421 29.9576 5.02519 29.1237C4.98326 28.7878 4.8407 28.5736 4.59751 28.4809C4.47172 28.4346 3.98115 28.3767 3.12579 28.3072L3 28.1335V26.9521L3.12579 26.7958C3.97276 26.8653 5.28096 26.9 7.05038 26.9C8.62692 26.9 11.6249 26.8653 16.0442 26.7958L16.1826 26.9348L16.0191 28.8631C15.9688 29.4769 15.931 29.9981 15.9059 30.4266L15.8178 32.0423L15.692 32.2334H14.9625L14.8367 32.0596C14.8283 30.4845 14.7612 29.587 14.6354 29.3669C14.5432 29.2048 14.0903 29.0774 13.2769 28.9847C12.4718 28.8921 11.7632 28.8457 11.1511 28.8457C10.4215 28.8457 9.68355 28.8863 8.9372 28.9673C8.84496 30.1834 8.79884 31.8685 8.79884 34.0227V37.6188C9.46132 37.6767 9.99802 37.7057 10.4089 37.7057L12.0567 37.6883C12.8282 37.6767 13.2643 37.5898 13.3649 37.4277C13.4991 37.2192 13.5872 36.4375 13.6291 35.0824L13.7549 34.9087H14.5348L14.6606 35.0824C14.627 36.3796 14.6102 37.5667 14.6102 38.6438C14.6102 39.8135 14.627 41.0933 14.6606 42.4831L14.5348 42.6394H13.692L13.5662 42.4657C13.5662 41.1338 13.4991 40.3463 13.3649 40.1031C13.2308 39.8483 12.8241 39.6803 12.1448 39.5993C11.6333 39.5413 11.0882 39.5124 10.5096 39.5124C9.89739 39.5124 9.32715 39.5413 8.79884 39.5993V44.8978C8.79884 46.415 8.8198 47.8859 8.86173 49.3104H10.5724C13.0211 49.3104 14.5222 49.1772 15.0757 48.9109C15.1679 48.8645 15.235 48.8008 15.2769 48.7198C15.3608 48.5576 15.4405 48.2102 15.5159 47.6774L15.8178 45.5232L15.9436 45.3321H16.7109L16.8493 45.5059Z" fill="#ED3237"/>
<path d="M36.2091 51.2388L36.0959 51.4125C34.2342 51.343 33.1105 51.3083 32.7248 51.3083C31.1818 51.3083 29.7478 51.343 28.4228 51.4125L28.3096 51.2388V50.1443L28.4354 49.9532L29.5297 49.8663C29.991 49.8316 30.2216 49.6058 30.2216 49.1888C30.2216 48.9456 30.1042 48.4013 29.8694 47.5558L28.8505 43.8902C27.6932 43.8671 26.5108 43.8555 25.3032 43.8555C24.6492 43.8555 23.6764 43.8671 22.385 43.8902L21.8315 46.0097C21.4122 47.6195 21.2026 48.6271 21.2026 49.0325C21.2026 49.4726 21.3996 49.7332 21.7938 49.8142C22.0118 49.8606 22.4395 49.9069 23.0768 49.9532L23.2026 50.1269V51.2388L23.0768 51.4125C21.5254 51.343 20.5275 51.3083 20.083 51.3083C19.7392 51.3083 18.8881 51.343 17.5295 51.4125L17.4038 51.2561V50.1269L17.5421 49.9532C18.4059 49.8837 18.9342 49.6463 19.1271 49.2409C19.3283 48.8356 20.0705 46.4208 21.3535 41.9966L24.6366 30.6525C24.8798 29.7723 25.2487 28.4462 25.7435 26.6742H27.5297L34.1965 48.3376C34.4564 49.1599 34.6912 49.6231 34.9009 49.7274C35.1776 49.8663 35.576 49.9358 36.0959 49.9358L36.2091 50.1269V51.2388ZM28.2341 41.8924L25.5422 32.7893L22.9636 41.8924C23.6512 41.9272 24.5443 41.9445 25.6429 41.9445C26.7079 41.9445 27.5716 41.9272 28.2341 41.8924Z" fill="#ED3237"/>
<path d="M50.1977 43.2822C50.1977 45.1932 49.8036 46.8783 49.0153 48.3376C48.3277 49.6231 47.4262 50.5786 46.3109 51.204C45.2878 51.7831 44.0677 52.0726 42.6504 52.0726C40.8894 52.0726 39.1619 51.5167 37.468 50.4049L37.317 50.0227C37.5518 48.6908 37.6692 46.7972 37.6692 44.3419L37.795 44.1682H38.6001L38.7133 44.3419V44.7415C38.7133 45.3901 38.7636 46.2471 38.8642 47.3126C39.1661 48.0538 39.707 48.6908 40.4869 49.2236C41.3003 49.7795 42.1473 50.0574 43.0278 50.0574C44.6882 50.0574 45.8371 49.2583 46.4744 47.66C46.8015 46.8378 46.965 45.9865 46.965 45.1063C46.965 43.6239 46.5163 42.5641 45.619 41.9272C45.1746 41.6145 44.4576 41.3539 43.4681 41.1454C41.229 40.6705 39.7573 40.0741 39.0529 39.356C37.9879 38.2674 37.4554 36.5822 37.4554 34.3007C37.4554 31.9264 38.034 30.0328 39.1913 28.6199C40.4156 27.1374 42.1179 26.3962 44.2983 26.3962C46.2606 26.3962 47.8455 26.8305 49.0531 27.6992L49.1411 28.1161C48.9399 29.4943 48.8183 31.1505 48.7763 33.0846L48.638 33.2583H47.8455L47.7197 33.0846C47.6946 31.6948 47.6526 30.7914 47.5939 30.3745C47.334 29.8302 46.8811 29.3669 46.2354 28.9847C45.5478 28.5909 44.8308 28.394 44.0844 28.394C42.9607 28.394 42.0718 28.8052 41.4177 29.6275C40.8055 30.4035 40.4995 31.4053 40.4995 32.6329C40.4995 33.9648 40.8475 34.9434 41.5435 35.5689C41.9963 35.9742 43.0655 36.3622 44.7511 36.7328C44.9272 36.7675 45.4178 36.8834 46.2228 37.0803C46.7176 37.1961 47.1746 37.364 47.5939 37.5841C48.4409 38.0242 49.0782 38.6959 49.5059 39.5993C49.9671 40.5837 50.1977 41.8113 50.1977 43.2822Z" fill="#ED3237"/>
<path d="M67.4946 27.6123C66.1697 30.1023 64.7189 33.1541 63.1423 36.7675C62.2534 38.8059 61.7629 40.1088 61.6706 40.6763C61.6203 40.9775 61.5952 41.4118 61.5952 41.9793V43.6991C61.5952 47.0926 61.6706 48.9804 61.8216 49.3625C61.8887 49.5247 61.9851 49.6289 62.1109 49.6752C62.3205 49.7563 62.8363 49.8316 63.6581 49.9011L63.7839 50.0748V51.2388L63.6581 51.4125C62.8279 51.343 61.5365 51.3083 59.7838 51.3083C57.9892 51.3083 56.6978 51.343 55.9095 51.4125L55.7963 51.2561V50.0748L55.9221 49.9011C56.7439 49.8316 57.2597 49.7563 57.4693 49.6752C57.5951 49.6289 57.6915 49.5247 57.7586 49.3625C57.9096 48.9804 57.985 47.0926 57.985 43.6991V41.6492C57.985 41.2091 57.3267 39.4487 56.0102 36.368C54.6684 33.2294 53.5992 31.0984 52.8026 29.9749C52.4168 29.4306 52.1568 29.1237 52.0227 29.0542C51.8885 28.9731 51.574 28.9326 51.0793 28.9326L50.9409 28.7415V27.7686L51.0667 27.5775C53.1128 27.0216 54.4252 26.6279 55.0039 26.3962C55.4399 26.6858 55.8299 27.0622 56.1737 27.5254C56.8865 28.4867 57.8425 30.6293 59.0417 33.9532L60.6895 38.5048C61.1842 37.4045 62.1277 35.1925 63.5197 31.8685L64.916 28.4114C65.0669 28.0292 65.2724 27.5023 65.5323 26.8305H67.3688L67.4946 27.0043V27.6123Z" fill="#ED3237"/>
<path d="M69.6437 51.3082V25.8403H83.3169V30.1486H73.3671V35.7947H82.6251V40.0857H73.3671V47.0172H83.6691V51.3082H69.6437Z" fill="#3E4095"/>
<path d="M85.8337 51.3082V25.8403H89.4564L97.0037 42.8479V25.8403H100.463V51.3082H96.7269L89.2928 34.7002V51.3082H85.8337Z" fill="#3E4095"/>
<path d="M111.961 41.9445V37.6535H119.986V47.799C119.206 48.8414 118.074 49.7621 116.59 50.5612C115.114 51.3488 113.617 51.7425 112.099 51.7425C110.17 51.7425 108.489 51.1866 107.055 50.0748C105.621 48.9514 104.544 47.3531 103.822 45.28C103.101 43.1953 102.741 40.9311 102.741 38.4874C102.741 35.8352 103.143 33.4784 103.948 31.4168C104.753 29.3553 105.931 27.7744 107.483 26.6742C108.665 25.8287 110.137 25.406 111.898 25.406C114.187 25.406 115.974 26.0719 117.257 27.4038C118.548 28.7241 119.378 30.554 119.747 32.8935L116.049 33.849C115.789 32.5981 115.298 31.6137 114.577 30.8957C113.864 30.166 112.971 29.8012 111.898 29.8012C110.271 29.8012 108.976 30.5135 108.011 31.938C107.055 33.3625 106.577 35.4762 106.577 38.2789C106.577 41.3017 107.064 43.5717 108.036 45.0889C109.009 46.5945 110.284 47.3473 111.86 47.3473C112.64 47.3473 113.42 47.1389 114.2 46.7219C114.988 46.2934 115.663 45.778 116.225 45.1758V41.9445H111.961Z" fill="#3E4095"/>
<path d="M122.503 51.3082V26.0488H126.226V47.0172H135.484V51.3082H122.503Z" fill="#3E4095"/>
<path d="M137.007 51.3082V25.8403H140.731V51.3082H137.007Z" fill="#3E4095"/>
<path d="M142.317 43.0216L145.939 42.5352C146.157 44.2145 146.598 45.4479 147.26 46.2355C147.931 47.023 148.832 47.4168 149.965 47.4168C151.164 47.4168 152.065 47.0694 152.669 46.3745C153.281 45.668 153.587 44.8457 153.587 43.9076C153.587 43.3053 153.457 42.7958 153.197 42.3788C152.946 41.9503 152.501 41.5797 151.864 41.267C151.428 41.0585 150.434 40.6879 148.883 40.1551C146.887 39.4718 145.486 38.6322 144.681 37.6361C143.549 36.2348 142.983 34.5265 142.983 32.5113C142.983 31.2141 143.247 30.0039 143.776 28.8805C144.312 27.7455 145.08 26.8826 146.078 26.292C147.084 25.7013 148.296 25.406 149.713 25.406C152.027 25.406 153.768 26.1067 154.933 27.508C156.107 28.9094 156.724 30.7798 156.782 33.1193L153.059 33.3452C152.9 32.0364 152.556 31.0983 152.027 30.5308C151.508 29.9518 150.723 29.6622 149.675 29.6622C148.593 29.6622 147.746 29.9691 147.134 30.5829C146.74 30.9767 146.543 31.5037 146.543 32.1638C146.543 32.7661 146.728 33.2815 147.097 33.71C147.566 34.2543 148.707 34.8218 150.518 35.4125C152.329 36.0031 153.667 36.617 154.531 37.254C155.403 37.8794 156.082 38.7422 156.568 39.8424C157.063 40.9311 157.311 42.2804 157.311 43.8902C157.311 45.3495 157.017 46.7161 156.43 47.9901C155.843 49.2641 155.013 50.2138 153.939 50.8392C152.866 51.453 151.528 51.7599 149.927 51.7599C147.595 51.7599 145.805 51.0187 144.556 49.5362C143.306 48.0422 142.56 45.8707 142.317 43.0216Z" fill="#3E4095"/>
<path d="M159.425 51.3082V25.8403H163.148V35.8642H170.444V25.8403H174.167V51.3082H170.444V40.1725H163.148V51.3082H159.425Z" fill="#3E4095"/>
<path d="M16.8493 45.5059C16.6648 47.1968 16.5725 49.1077 16.5725 51.2388L16.4468 51.4125L7.30196 51.3083C5.77573 51.3083 4.69814 51.343 4.0692 51.4125L3.94341 51.2388V50.7523L4.00631 50.5439C4.62686 49.9995 4.9623 49.6579 5.01261 49.5189C5.08808 49.2988 5.13421 48.5287 5.15098 47.2084L5.18871 43.3169V34.5091C5.18871 31.7527 5.13421 29.9576 5.02519 29.1237C4.98326 28.7878 4.8407 28.5736 4.59751 28.4809C4.47172 28.4346 3.98115 28.3767 3.12579 28.3072L3 28.1335V26.9521L3.12579 26.7958C3.97276 26.8653 5.28096 26.9 7.05038 26.9C8.62692 26.9 11.6249 26.8653 16.0442 26.7958L16.1826 26.9348L16.0191 28.8631C15.9688 29.4769 15.931 29.9981 15.9059 30.4266L15.8178 32.0423L15.692 32.2334H14.9625L14.8367 32.0596C14.8283 30.4845 14.7612 29.587 14.6354 29.3669C14.5432 29.2048 14.0903 29.0774 13.2769 28.9847C12.4718 28.8921 11.7632 28.8457 11.1511 28.8457C10.4215 28.8457 9.68355 28.8863 8.9372 28.9673C8.84496 30.1834 8.79884 31.8685 8.79884 34.0227V37.6188C9.46132 37.6767 9.99802 37.7057 10.4089 37.7057L12.0567 37.6883C12.8282 37.6767 13.2643 37.5898 13.3649 37.4277C13.4991 37.2192 13.5872 36.4375 13.6291 35.0824L13.7549 34.9087H14.5348L14.6606 35.0824C14.627 36.3796 14.6102 37.5667 14.6102 38.6438C14.6102 39.8135 14.627 41.0933 14.6606 42.4831L14.5348 42.6394H13.692L13.5662 42.4657C13.5662 41.1338 13.4991 40.3463 13.3649 40.1031C13.2308 39.8483 12.8241 39.6803 12.1448 39.5993C11.6333 39.5413 11.0882 39.5124 10.5096 39.5124C9.89739 39.5124 9.32715 39.5413 8.79884 39.5993V44.8978C8.79884 46.415 8.8198 47.8859 8.86173 49.3104H10.5724C13.0211 49.3104 14.5222 49.1772 15.0757 48.9109C15.1679 48.8645 15.235 48.8008 15.2769 48.7198C15.3608 48.5576 15.4405 48.2102 15.5159 47.6774L15.8178 45.5232L15.9436 45.3321H16.7109L16.8493 45.5059Z" stroke="#EDF3FF" stroke-width="5" mask="url(#path-1-outside-1_462_266)"/>
<path d="M36.2091 51.2388L36.0959 51.4125C34.2342 51.343 33.1105 51.3083 32.7248 51.3083C31.1818 51.3083 29.7478 51.343 28.4228 51.4125L28.3096 51.2388V50.1443L28.4354 49.9532L29.5297 49.8663C29.991 49.8316 30.2216 49.6058 30.2216 49.1888C30.2216 48.9456 30.1042 48.4013 29.8694 47.5558L28.8505 43.8902C27.6932 43.8671 26.5108 43.8555 25.3032 43.8555C24.6492 43.8555 23.6764 43.8671 22.385 43.8902L21.8315 46.0097C21.4122 47.6195 21.2026 48.6271 21.2026 49.0325C21.2026 49.4726 21.3996 49.7332 21.7938 49.8142C22.0118 49.8606 22.4395 49.9069 23.0768 49.9532L23.2026 50.1269V51.2388L23.0768 51.4125C21.5254 51.343 20.5275 51.3083 20.083 51.3083C19.7392 51.3083 18.8881 51.343 17.5295 51.4125L17.4038 51.2561V50.1269L17.5421 49.9532C18.4059 49.8837 18.9342 49.6463 19.1271 49.2409C19.3283 48.8356 20.0705 46.4208 21.3535 41.9966L24.6366 30.6525C24.8798 29.7723 25.2487 28.4462 25.7435 26.6742H27.5297L34.1965 48.3376C34.4564 49.1599 34.6912 49.6231 34.9009 49.7274C35.1776 49.8663 35.576 49.9358 36.0959 49.9358L36.2091 50.1269V51.2388ZM28.2341 41.8924L25.5422 32.7893L22.9636 41.8924C23.6512 41.9272 24.5443 41.9445 25.6429 41.9445C26.7079 41.9445 27.5716 41.9272 28.2341 41.8924Z" stroke="#EDF3FF" stroke-width="5" mask="url(#path-1-outside-1_462_266)"/>
<path d="M50.1977 43.2822C50.1977 45.1932 49.8036 46.8783 49.0153 48.3376C48.3277 49.6231 47.4262 50.5786 46.3109 51.204C45.2878 51.7831 44.0677 52.0726 42.6504 52.0726C40.8894 52.0726 39.1619 51.5167 37.468 50.4049L37.317 50.0227C37.5518 48.6908 37.6692 46.7972 37.6692 44.3419L37.795 44.1682H38.6001L38.7133 44.3419V44.7415C38.7133 45.3901 38.7636 46.2471 38.8642 47.3126C39.1661 48.0538 39.707 48.6908 40.4869 49.2236C41.3003 49.7795 42.1473 50.0574 43.0278 50.0574C44.6882 50.0574 45.8371 49.2583 46.4744 47.66C46.8015 46.8378 46.965 45.9865 46.965 45.1063C46.965 43.6239 46.5163 42.5641 45.619 41.9272C45.1746 41.6145 44.4576 41.3539 43.4681 41.1454C41.229 40.6705 39.7573 40.0741 39.0529 39.356C37.9879 38.2674 37.4554 36.5822 37.4554 34.3007C37.4554 31.9264 38.034 30.0328 39.1913 28.6199C40.4156 27.1374 42.1179 26.3962 44.2983 26.3962C46.2606 26.3962 47.8455 26.8305 49.0531 27.6992L49.1411 28.1161C48.9399 29.4943 48.8183 31.1505 48.7763 33.0846L48.638 33.2583H47.8455L47.7197 33.0846C47.6946 31.6948 47.6526 30.7914 47.5939 30.3745C47.334 29.8302 46.8811 29.3669 46.2354 28.9847C45.5478 28.5909 44.8308 28.394 44.0844 28.394C42.9607 28.394 42.0718 28.8052 41.4177 29.6275C40.8055 30.4035 40.4995 31.4053 40.4995 32.6329C40.4995 33.9648 40.8475 34.9434 41.5435 35.5689C41.9963 35.9742 43.0655 36.3622 44.7511 36.7328C44.9272 36.7675 45.4178 36.8834 46.2228 37.0803C46.7176 37.1961 47.1746 37.364 47.5939 37.5841C48.4409 38.0242 49.0782 38.6959 49.5059 39.5993C49.9671 40.5837 50.1977 41.8113 50.1977 43.2822Z" stroke="#EDF3FF" stroke-width="5" mask="url(#path-1-outside-1_462_266)"/>
<path d="M67.4946 27.6123C66.1697 30.1023 64.7189 33.1541 63.1423 36.7675C62.2534 38.8059 61.7629 40.1088 61.6706 40.6763C61.6203 40.9775 61.5952 41.4118 61.5952 41.9793V43.6991C61.5952 47.0926 61.6706 48.9804 61.8216 49.3625C61.8887 49.5247 61.9851 49.6289 62.1109 49.6752C62.3205 49.7563 62.8363 49.8316 63.6581 49.9011L63.7839 50.0748V51.2388L63.6581 51.4125C62.8279 51.343 61.5365 51.3083 59.7838 51.3083C57.9892 51.3083 56.6978 51.343 55.9095 51.4125L55.7963 51.2561V50.0748L55.9221 49.9011C56.7439 49.8316 57.2597 49.7563 57.4693 49.6752C57.5951 49.6289 57.6915 49.5247 57.7586 49.3625C57.9096 48.9804 57.985 47.0926 57.985 43.6991V41.6492C57.985 41.2091 57.3267 39.4487 56.0102 36.368C54.6684 33.2294 53.5992 31.0984 52.8026 29.9749C52.4168 29.4306 52.1568 29.1237 52.0227 29.0542C51.8885 28.9731 51.574 28.9326 51.0793 28.9326L50.9409 28.7415V27.7686L51.0667 27.5775C53.1128 27.0216 54.4252 26.6279 55.0039 26.3962C55.4399 26.6858 55.8299 27.0622 56.1737 27.5254C56.8865 28.4867 57.8425 30.6293 59.0417 33.9532L60.6895 38.5048C61.1842 37.4045 62.1277 35.1925 63.5197 31.8685L64.916 28.4114C65.0669 28.0292 65.2724 27.5023 65.5323 26.8305H67.3688L67.4946 27.0043V27.6123Z" stroke="#EDF3FF" stroke-width="5" mask="url(#path-1-outside-1_462_266)"/>
<path d="M69.6437 51.3082V25.8403H83.3169V30.1486H73.3671V35.7947H82.6251V40.0857H73.3671V47.0172H83.6691V51.3082H69.6437Z" stroke="#EDF3FF" stroke-width="5" mask="url(#path-1-outside-1_462_266)"/>
<path d="M85.8337 51.3082V25.8403H89.4564L97.0037 42.8479V25.8403H100.463V51.3082H96.7269L89.2928 34.7002V51.3082H85.8337Z" stroke="#EDF3FF" stroke-width="5" mask="url(#path-1-outside-1_462_266)"/>
<path d="M111.961 41.9445V37.6535H119.986V47.799C119.206 48.8414 118.074 49.7621 116.59 50.5612C115.114 51.3488 113.617 51.7425 112.099 51.7425C110.17 51.7425 108.489 51.1866 107.055 50.0748C105.621 48.9514 104.544 47.3531 103.822 45.28C103.101 43.1953 102.741 40.9311 102.741 38.4874C102.741 35.8352 103.143 33.4784 103.948 31.4168C104.753 29.3553 105.931 27.7744 107.483 26.6742C108.665 25.8287 110.137 25.406 111.898 25.406C114.187 25.406 115.974 26.0719 117.257 27.4038C118.548 28.7241 119.378 30.554 119.747 32.8935L116.049 33.849C115.789 32.5981 115.298 31.6137 114.577 30.8957C113.864 30.166 112.971 29.8012 111.898 29.8012C110.271 29.8012 108.976 30.5135 108.011 31.938C107.055 33.3625 106.577 35.4762 106.577 38.2789C106.577 41.3017 107.064 43.5717 108.036 45.0889C109.009 46.5945 110.284 47.3473 111.86 47.3473C112.64 47.3473 113.42 47.1389 114.2 46.7219C114.988 46.2934 115.663 45.778 116.225 45.1758V41.9445H111.961Z" stroke="#EDF3FF" stroke-width="5" mask="url(#path-1-outside-1_462_266)"/>
<path d="M122.503 51.3082V26.0488H126.226V47.0172H135.484V51.3082H122.503Z" stroke="#EDF3FF" stroke-width="5" mask="url(#path-1-outside-1_462_266)"/>
<path d="M137.007 51.3082V25.8403H140.731V51.3082H137.007Z" stroke="#EDF3FF" stroke-width="5" mask="url(#path-1-outside-1_462_266)"/>
<path d="M142.317 43.0216L145.939 42.5352C146.157 44.2145 146.598 45.4479 147.26 46.2355C147.931 47.023 148.832 47.4168 149.965 47.4168C151.164 47.4168 152.065 47.0694 152.669 46.3745C153.281 45.668 153.587 44.8457 153.587 43.9076C153.587 43.3053 153.457 42.7958 153.197 42.3788C152.946 41.9503 152.501 41.5797 151.864 41.267C151.428 41.0585 150.434 40.6879 148.883 40.1551C146.887 39.4718 145.486 38.6322 144.681 37.6361C143.549 36.2348 142.983 34.5265 142.983 32.5113C142.983 31.2141 143.247 30.0039 143.776 28.8805C144.312 27.7455 145.08 26.8826 146.078 26.292C147.084 25.7013 148.296 25.406 149.713 25.406C152.027 25.406 153.768 26.1067 154.933 27.508C156.107 28.9094 156.724 30.7798 156.782 33.1193L153.059 33.3452C152.9 32.0364 152.556 31.0983 152.027 30.5308C151.508 29.9518 150.723 29.6622 149.675 29.6622C148.593 29.6622 147.746 29.9691 147.134 30.5829C146.74 30.9767 146.543 31.5037 146.543 32.1638C146.543 32.7661 146.728 33.2815 147.097 33.71C147.566 34.2543 148.707 34.8218 150.518 35.4125C152.329 36.0031 153.667 36.617 154.531 37.254C155.403 37.8794 156.082 38.7422 156.568 39.8424C157.063 40.9311 157.311 42.2804 157.311 43.8902C157.311 45.3495 157.017 46.7161 156.43 47.9901C155.843 49.2641 155.013 50.2138 153.939 50.8392C152.866 51.453 151.528 51.7599 149.927 51.7599C147.595 51.7599 145.805 51.0187 144.556 49.5362C143.306 48.0422 142.56 45.8707 142.317 43.0216Z" stroke="#EDF3FF" stroke-width="5" mask="url(#path-1-outside-1_462_266)"/>
<path d="M159.425 51.3082V25.8403H163.148V35.8642H170.444V25.8403H174.167V51.3082H170.444V40.1725H163.148V51.3082H159.425Z" stroke="#EDF3FF" stroke-width="5" mask="url(#path-1-outside-1_462_266)"/>
</g>
<mask id="path-2-outside-2_462_266" maskUnits="userSpaceOnUse" x="174.883" y="-0.5" width="51" height="61" fill="black">
<rect fill="white" x="174.883" y="-0.5" width="51" height="61"/>
<path fill-rule="evenodd" clip-rule="evenodd" d="M188.592 2.5C189.502 2.5 190.24 3.2359 190.24 4.14355C190.24 4.73796 189.922 5.25634 189.448 5.54492L200.85 19.3066H198.177L189.264 5.64258C189.059 5.73439 188.831 5.78711 188.592 5.78711C187.682 5.78686 186.944 5.05101 186.944 4.14355C186.944 3.23605 187.682 2.50025 188.592 2.5ZM214.134 5.35652C214.232 4.4543 215.044 3.80134 215.949 3.89796C216.853 3.99463 217.508 4.8044 217.412 5.70673C217.315 6.60922 216.502 7.26296 215.598 7.16627C215.359 7.1408 215.139 7.06401 214.945 6.95097L204.622 19.591L201.965 19.3073L214.773 6.83528C214.332 6.49799 214.071 5.94781 214.134 5.35652ZM215.792 25.4582C205.209 24.3326 194.057 23.4848 185.32 24.519C184.335 24.6876 184.144 24.8652 183.681 25.2975L183.681 25.2978C183.638 25.3382 183.592 25.3809 183.543 25.4261C182.706 26.1968 182.351 28.0815 182.351 28.0815L181.317 49.2045C181.317 49.2045 181.447 50.8797 182.451 51.9889C183.675 53.1545 185.182 53.4081 185.182 53.4081C194.171 55.4908 211.125 57.0234 211.125 57.0234C211.125 57.0234 194.224 56.7994 185.727 55.9617C185.549 55.9391 185.339 55.9223 185.104 55.9036C183.724 55.7933 181.473 55.6134 179.645 53.7677C177.883 51.9889 177.883 49.2045 177.883 49.2045L179.032 27.2043C179.152 26.3137 179.582 24.6624 180.724 23.5376C182.1 22.1831 183.734 21.7966 185.32 21.8561C188.659 21.6896 198.95 21.6749 215.792 25.4582ZM187.644 52.7381C196.888 53.6717 206.952 54.6881 215.608 54.0559C216.343 53.8909 216.831 53.3596 217.271 52.8817C217.418 52.7212 217.56 52.5668 217.704 52.4342C218.191 51.8481 218.498 49.8898 218.498 49.8898L219.476 28.7396C219.476 28.7396 219.339 26.978 218.335 25.8688C217.111 24.7032 215.201 24.4835 215.201 24.4835C205.886 21.9299 192.849 20.8669 185.136 20.3478C201.958 19.8901 206.562 20.5829 215.201 21.9263C215.303 21.9393 215.414 21.952 215.534 21.9657C216.855 22.1164 219.206 22.3849 221.168 24.365C222.93 26.1438 222.839 28.7396 222.839 28.7396L221.771 50.7017C221.764 50.7547 221.757 50.8125 221.749 50.8744C221.621 51.8512 221.358 53.8649 220.284 54.9227C218.908 56.2772 217.194 56.9606 215.608 56.9011C210.078 56.4154 192.401 53.8403 185.136 52.4859C185.964 52.5684 186.801 52.6529 187.644 52.7381Z"/>
</mask>
<path d="M190.24 4.14355L192.74 4.1437V4.14355H190.24ZM188.592 2.5L188.592 -9.57335e-08L188.591 9.57335e-08L188.592 2.5ZM189.448 5.54492L188.148 3.40949C187.528 3.78706 187.102 4.41564 186.982 5.13177C186.862 5.8479 187.06 6.58082 187.523 7.13995L189.448 5.54492ZM200.85 19.3066V21.8066C201.819 21.8066 202.701 21.247 203.113 20.3702C203.525 19.4935 203.393 18.4576 202.775 17.7116L200.85 19.3066ZM198.177 19.3066L196.084 20.6725C196.545 21.38 197.333 21.8066 198.177 21.8066V19.3066ZM189.264 5.64258L191.358 4.27672C190.687 3.24734 189.367 2.85869 188.245 3.36003L189.264 5.64258ZM188.592 5.78711L188.591 8.28711H188.592V5.78711ZM186.944 4.14355L184.444 4.14355L184.444 4.1437L186.944 4.14355ZM215.949 3.89796L216.214 1.41211L216.214 1.41209L215.949 3.89796ZM214.134 5.35652L211.649 5.08879L211.649 5.08948L214.134 5.35652ZM217.412 5.70673L219.897 5.97377L219.897 5.97313L217.412 5.70673ZM215.598 7.16627L215.332 9.65211L215.332 9.65212L215.598 7.16627ZM214.945 6.95097L216.201 4.78965C215.139 4.17216 213.786 4.41801 213.009 5.36961L214.945 6.95097ZM204.622 19.591L204.356 22.0768C205.196 22.1665 206.024 21.8263 206.558 21.1723L204.622 19.591ZM201.965 19.3073L200.221 17.5162C199.527 18.1922 199.286 19.2084 199.602 20.1242C199.919 21.0399 200.736 21.6902 201.7 21.7931L201.965 19.3073ZM214.773 6.83528L216.517 8.62634C217.037 8.11961 217.311 7.41161 217.268 6.68656C217.225 5.96151 216.869 5.2911 216.292 4.84975L214.773 6.83528ZM185.32 24.519L185.026 22.0364C184.984 22.0414 184.941 22.0476 184.899 22.0548L185.32 24.519ZM215.792 25.4582L215.527 27.9442C216.845 28.0843 218.043 27.1723 218.259 25.8651C218.474 24.5579 217.632 23.3094 216.34 23.019L215.792 25.4582ZM183.681 25.2975L185.382 27.1297L185.387 27.125L183.681 25.2975ZM183.681 25.2978L181.98 23.4655L181.975 23.4702L183.681 25.2978ZM183.543 25.4261L185.236 27.2652L185.236 27.2651L183.543 25.4261ZM182.351 28.0815L179.894 27.6186C179.873 27.7311 179.859 27.8449 179.854 27.9593L182.351 28.0815ZM181.317 49.2045L178.82 49.0823C178.815 49.1876 178.816 49.2931 178.824 49.3982L181.317 49.2045ZM182.451 51.9889L180.597 53.6662C180.638 53.7121 180.682 53.7565 180.727 53.7992L182.451 51.9889ZM185.182 53.4081L185.746 50.9726C185.697 50.9611 185.647 50.9511 185.597 50.9427L185.182 53.4081ZM211.125 57.0234L211.091 59.5231C212.435 59.5409 213.552 58.4941 213.621 57.1526C213.691 55.811 212.687 54.6545 211.35 54.5335L211.125 57.0234ZM185.727 55.9617L185.411 58.4418C185.435 58.4447 185.458 58.4474 185.481 58.4497L185.727 55.9617ZM185.104 55.9036L185.303 53.4115L185.303 53.4115L185.104 55.9036ZM179.645 53.7677L177.869 55.527L177.869 55.527L179.645 53.7677ZM177.883 49.2045L175.386 49.0741C175.384 49.1175 175.383 49.161 175.383 49.2045H177.883ZM179.032 27.2043L176.555 26.8697C176.545 26.9374 176.539 27.0056 176.536 27.0739L179.032 27.2043ZM180.724 23.5376L182.478 25.319L182.478 25.319L180.724 23.5376ZM185.32 21.8561L185.226 24.3543C185.299 24.357 185.372 24.3566 185.445 24.353L185.32 21.8561ZM215.608 54.0559L215.79 56.5492C215.913 56.5402 216.035 56.5222 216.155 56.4952L215.608 54.0559ZM187.644 52.7381L187.895 50.2507L187.644 52.7381ZM217.271 52.8817L215.431 51.1895L215.431 51.1895L217.271 52.8817ZM217.704 52.4342L219.398 54.2733C219.48 54.1976 219.557 54.1164 219.628 54.0304L217.704 52.4342ZM218.498 49.8898L220.968 50.2778C220.982 50.1875 220.991 50.0966 220.996 50.0053L218.498 49.8898ZM219.476 28.7396L221.974 28.8551C221.978 28.7517 221.977 28.6482 221.969 28.545L219.476 28.7396ZM218.335 25.8688L220.189 24.1915C220.147 24.1456 220.104 24.1012 220.059 24.0585L218.335 25.8688ZM215.201 24.4835L214.54 26.8946C214.663 26.9283 214.789 26.9526 214.915 26.9671L215.201 24.4835ZM185.136 20.3478L185.068 17.8487C183.733 17.885 182.663 18.9632 182.636 20.2978C182.61 21.6324 183.636 22.7525 184.968 22.8422L185.136 20.3478ZM215.201 21.9263L214.817 24.3966C214.84 24.4002 214.863 24.4034 214.886 24.4064L215.201 21.9263ZM215.534 21.9657L215.251 24.4496L215.251 24.4496L215.534 21.9657ZM221.168 24.365L219.392 26.1243L219.392 26.1243L221.168 24.365ZM222.839 28.7396L225.336 28.8609C225.336 28.8497 225.337 28.8384 225.337 28.8272L222.839 28.7396ZM221.771 50.7017L224.249 51.0364C224.259 50.9656 224.265 50.8944 224.269 50.823L221.771 50.7017ZM221.749 50.8744L224.228 51.1981L224.228 51.198L221.749 50.8744ZM220.284 54.9227L218.53 53.1413L218.53 53.1413L220.284 54.9227ZM215.608 56.9011L215.389 59.3915C215.43 59.3952 215.472 59.3978 215.514 59.3994L215.608 56.9011ZM185.136 52.4859L185.384 49.9982C184.051 49.8654 182.85 50.8066 182.661 52.1326C182.472 53.4585 183.361 54.6981 184.678 54.9435L185.136 52.4859ZM190.24 4.14355H192.74C192.74 1.84797 190.875 0 188.592 0V2.5V5C188.128 5 187.74 4.62382 187.74 4.14355H190.24ZM189.448 5.54492L190.748 7.68035C191.927 6.96264 192.74 5.65661 192.74 4.1437L190.24 4.14355L187.74 4.14341C187.74 3.81932 187.917 3.55004 188.148 3.40949L189.448 5.54492ZM200.85 19.3066L202.775 17.7116L191.373 3.9499L189.448 5.54492L187.523 7.13995L198.925 20.9017L200.85 19.3066ZM198.177 19.3066V21.8066H200.85V19.3066V16.8066H198.177V19.3066ZM189.264 5.64258L187.17 7.00843L196.084 20.6725L198.177 19.3066L200.271 17.9408L191.358 4.27672L189.264 5.64258ZM188.592 5.78711V8.28711C189.201 8.28711 189.775 8.15245 190.284 7.92513L189.264 5.64258L188.245 3.36003C188.342 3.31633 188.461 3.28711 188.592 3.28711V5.78711ZM186.944 4.14355L184.444 4.1437C184.444 6.43759 186.307 8.28648 188.591 8.28711L188.592 5.78711L188.592 3.28711C189.057 3.28724 189.444 3.66444 189.444 4.14341L186.944 4.14355ZM188.592 2.5L188.591 9.57335e-08C186.307 0.000632205 184.444 1.84937 184.444 4.14355H186.944H189.444C189.444 4.62274 189.057 4.99987 188.592 5L188.592 2.5ZM215.949 3.89796L216.214 1.41209C213.944 1.16965 211.894 2.80822 211.649 5.08879L214.134 5.35652L216.62 5.62425C216.569 6.10038 216.144 6.43303 215.683 6.38382L215.949 3.89796ZM217.412 5.70673L219.897 5.97313C220.142 3.69129 218.486 1.65482 216.214 1.41211L215.949 3.89796L215.683 6.38381C215.221 6.33444 214.875 5.91752 214.926 5.44033L217.412 5.70673ZM215.598 7.16627L215.332 9.65212C217.604 9.89487 219.652 8.25382 219.897 5.97377L217.412 5.70673L214.926 5.43969C214.977 4.96463 215.401 4.63104 215.863 4.68041L215.598 7.16627ZM214.945 6.95097L213.688 9.11229C214.167 9.39066 214.723 9.58698 215.332 9.65211L215.598 7.16627L215.863 4.68042C215.996 4.69461 216.111 4.73736 216.201 4.78965L214.945 6.95097ZM204.622 19.591L206.558 21.1723L216.881 8.53232L214.945 6.95097L213.009 5.36961L202.686 18.0096L204.622 19.591ZM201.965 19.3073L201.7 21.7931L204.356 22.0768L204.622 19.591L204.887 17.1051L202.231 16.8214L201.965 19.3073ZM214.773 6.83528L213.028 5.04421L200.221 17.5162L201.965 19.3073L203.709 21.0983L216.517 8.62634L214.773 6.83528ZM214.134 5.35652L211.649 5.08948C211.487 6.59299 212.155 7.98048 213.254 8.8208L214.773 6.83528L216.292 4.84975C216.508 5.01549 216.655 5.30262 216.62 5.62356L214.134 5.35652ZM185.32 24.519L185.614 27.0017C194.038 26.0045 204.932 26.8172 215.527 27.9442L215.792 25.4582L216.056 22.9722C205.486 21.8479 194.076 20.9652 185.026 22.0364L185.32 24.519ZM183.681 25.2975L185.387 27.125C185.448 27.068 185.487 27.0317 185.522 27.0005C185.554 26.9711 185.569 26.9591 185.572 26.956C185.575 26.954 185.564 26.9633 185.542 26.9779C185.519 26.9932 185.492 27.0096 185.463 27.025C185.401 27.0575 185.37 27.0636 185.405 27.0535C185.449 27.0409 185.547 27.0165 185.742 26.9833L185.32 24.519L184.899 22.0548C184.321 22.1537 183.722 22.293 183.147 22.5937C182.569 22.8959 182.166 23.2919 181.975 23.4699L183.681 25.2975ZM183.681 25.2978L185.382 27.13L185.382 27.1297L183.681 25.2975L181.98 23.4652L181.98 23.4655L183.681 25.2978ZM183.543 25.4261L185.236 27.2651C185.292 27.2134 185.344 27.1652 185.387 27.1253L183.681 25.2978L181.975 23.4702C181.931 23.5113 181.891 23.5484 181.849 23.587L183.543 25.4261ZM182.351 28.0815C184.807 28.5443 184.807 28.5448 184.807 28.5452C184.807 28.5453 184.807 28.5457 184.807 28.546C184.807 28.5465 184.807 28.547 184.807 28.5474C184.807 28.5483 184.807 28.5491 184.806 28.5499C184.806 28.5513 184.806 28.5523 184.806 28.5528C184.806 28.554 184.806 28.5535 184.806 28.5515C184.807 28.5475 184.809 28.5374 184.812 28.5219C184.819 28.4907 184.83 28.4387 184.847 28.3714C184.881 28.234 184.932 28.0472 184.999 27.8492C185.068 27.6459 185.142 27.469 185.213 27.3363C185.292 27.1869 185.314 27.1939 185.236 27.2652L183.543 25.4261L181.849 23.587C180.936 24.4279 180.476 25.6201 180.266 26.2364C180.141 26.6059 180.05 26.9384 179.991 27.1785C179.962 27.2999 179.939 27.4012 179.923 27.4761C179.915 27.5136 179.908 27.5447 179.904 27.5687C179.901 27.5807 179.899 27.5909 179.898 27.5992C179.897 27.6034 179.896 27.6071 179.895 27.6103C179.895 27.612 179.895 27.6135 179.895 27.6148C179.894 27.6155 179.894 27.6162 179.894 27.6168C179.894 27.6171 179.894 27.6176 179.894 27.6177C179.894 27.6182 179.894 27.6186 182.351 28.0815ZM181.317 49.2045L183.814 49.3267L184.848 28.2037L182.351 28.0815L179.854 27.9593L178.82 49.0823L181.317 49.2045ZM182.451 51.9889L184.305 50.3116C184.164 50.156 184.018 49.8702 183.913 49.499C183.866 49.3324 183.837 49.1865 183.822 49.0888C183.814 49.041 183.81 49.0078 183.808 48.9929C183.807 48.9856 183.807 48.983 183.807 48.9858C183.807 48.9872 183.808 48.9899 183.808 48.9941C183.808 48.9961 183.808 48.9986 183.809 49.0014C183.809 49.0028 183.809 49.0042 183.809 49.0058C183.809 49.0066 183.809 49.0074 183.809 49.0083C183.809 49.0087 183.809 49.0093 183.809 49.0095C183.809 49.0102 183.809 49.0108 181.317 49.2045C178.824 49.3982 178.825 49.3989 178.825 49.3995C178.825 49.3998 178.825 49.4005 178.825 49.4009C178.825 49.4019 178.825 49.4028 178.825 49.4038C178.825 49.4058 178.825 49.4079 178.825 49.4101C178.826 49.4145 178.826 49.4194 178.827 49.4247C178.828 49.4352 178.829 49.4475 178.83 49.4614C178.833 49.4893 178.836 49.5238 178.841 49.5644C178.85 49.6455 178.864 49.7518 178.884 49.8783C178.924 50.1294 178.991 50.4717 179.102 50.8625C179.313 51.6062 179.734 52.7126 180.597 53.6662L182.451 51.9889ZM185.182 53.4081C185.597 50.9427 185.597 50.9428 185.598 50.9429C185.598 50.943 185.599 50.9431 185.6 50.9432C185.601 50.9433 185.601 50.9435 185.602 50.9437C185.604 50.944 185.606 50.9443 185.608 50.9446C185.611 50.9451 185.614 50.9457 185.617 50.9461C185.622 50.9471 185.626 50.9478 185.629 50.9484C185.634 50.9494 185.635 50.9496 185.631 50.9488C185.624 50.9473 185.599 50.9419 185.56 50.9317C185.481 50.911 185.351 50.8726 185.193 50.8101C184.865 50.6805 184.488 50.4767 184.175 50.1785L182.451 51.9889L180.727 53.7992C181.637 54.6667 182.626 55.1724 183.358 55.461C183.729 55.6077 184.053 55.7055 184.294 55.7688C184.416 55.8006 184.518 55.8241 184.598 55.8409C184.638 55.8493 184.672 55.8561 184.701 55.8615C184.715 55.8642 184.727 55.8665 184.739 55.8684C184.744 55.8694 184.749 55.8703 184.754 55.8712C184.756 55.8716 184.759 55.872 184.761 55.8724C184.762 55.8725 184.763 55.8727 184.764 55.8729C184.765 55.873 184.765 55.8731 184.766 55.8732C184.766 55.8733 184.767 55.8734 185.182 53.4081ZM211.125 57.0234C211.35 54.5335 211.35 54.5335 211.35 54.5335C211.35 54.5335 211.349 54.5335 211.349 54.5335C211.349 54.5334 211.348 54.5334 211.347 54.5333C211.345 54.5331 211.343 54.5329 211.339 54.5325C211.331 54.5318 211.319 54.5308 211.304 54.5293C211.272 54.5265 211.225 54.5221 211.163 54.5164C211.039 54.5048 210.855 54.4875 210.616 54.4648C210.14 54.4193 209.448 54.3518 208.589 54.2642C206.87 54.0891 204.485 53.8341 201.822 53.5146C196.463 52.8714 190.096 51.9805 185.746 50.9726L185.182 53.4081L184.618 55.8435C189.257 56.9184 195.861 57.8351 201.226 58.4789C203.926 58.8029 206.341 59.0612 208.082 59.2385C208.952 59.3272 209.655 59.3957 210.141 59.4421C210.384 59.4653 210.572 59.483 210.701 59.4949C210.765 59.5009 210.814 59.5054 210.848 59.5085C210.864 59.51 210.877 59.5112 210.886 59.512C210.89 59.5124 210.893 59.5127 210.896 59.5129C210.897 59.513 210.898 59.5131 210.898 59.5131C210.899 59.5131 210.899 59.5132 210.899 59.5132C210.899 59.5132 210.899 59.5132 211.125 57.0234ZM185.727 55.9617L185.481 58.4497C189.824 58.8778 196.251 59.1449 201.536 59.3055C204.191 59.3862 206.578 59.4406 208.301 59.4748C209.163 59.4919 209.86 59.504 210.341 59.5118C210.582 59.5157 210.769 59.5185 210.896 59.5204C210.96 59.5213 211.008 59.522 211.041 59.5225C211.057 59.5227 211.07 59.5229 211.078 59.523C211.083 59.523 211.086 59.5231 211.088 59.5231C211.089 59.5231 211.09 59.5231 211.09 59.5231C211.091 59.5231 211.091 59.5231 211.091 59.5231C211.091 59.5231 211.091 59.5231 211.125 57.0234C211.158 54.5236 211.158 54.5236 211.158 54.5236C211.157 54.5236 211.157 54.5236 211.157 54.5236C211.157 54.5236 211.156 54.5236 211.155 54.5236C211.153 54.5235 211.15 54.5235 211.146 54.5234C211.138 54.5233 211.126 54.5232 211.111 54.5229C211.079 54.5225 211.032 54.5218 210.969 54.5209C210.845 54.5191 210.66 54.5163 210.422 54.5124C209.946 54.5047 209.256 54.4928 208.401 54.4758C206.69 54.4418 204.321 54.3879 201.688 54.3078C196.399 54.1471 190.127 53.8834 185.972 53.4738L185.727 55.9617ZM185.104 55.9036L184.905 58.3956C185.158 58.4158 185.304 58.428 185.411 58.4418L185.727 55.9617L186.042 53.4817C185.794 53.4501 185.52 53.4288 185.303 53.4115L185.104 55.9036ZM179.645 53.7677L177.869 55.527C180.406 58.0886 183.532 58.2859 184.905 58.3956L185.104 55.9036L185.303 53.4115C183.916 53.3007 182.54 53.1382 181.421 52.0084L179.645 53.7677ZM177.883 49.2045C175.383 49.2045 175.383 49.2053 175.383 49.2061C175.383 49.2064 175.383 49.2072 175.383 49.2077C175.383 49.2089 175.383 49.21 175.383 49.2112C175.383 49.2137 175.383 49.2163 175.383 49.219C175.383 49.2246 175.383 49.2308 175.383 49.2378C175.383 49.2517 175.383 49.2684 175.384 49.2878C175.385 49.3266 175.386 49.3762 175.389 49.4356C175.394 49.5542 175.403 49.7132 175.422 49.9046C175.458 50.2846 175.529 50.8068 175.672 51.402C175.949 52.5552 176.542 54.1876 177.869 55.527L179.645 53.7677L181.421 52.0084C180.986 51.569 180.698 50.9198 180.534 50.2361C180.457 49.9129 180.418 49.6278 180.399 49.4302C180.39 49.3327 180.386 49.2603 180.384 49.2197C180.383 49.1995 180.383 49.1875 180.383 49.1846C180.383 49.1832 180.383 49.184 180.383 49.1873C180.383 49.1889 180.383 49.1912 180.383 49.194C180.383 49.1955 180.383 49.1971 180.383 49.1988C180.383 49.1997 180.383 49.2006 180.383 49.2015C180.383 49.202 180.383 49.2028 180.383 49.203C180.383 49.2038 180.383 49.2045 177.883 49.2045ZM179.032 27.2043L176.536 27.0739L175.386 49.0741L177.883 49.2045L180.379 49.3349L181.529 27.3347L179.032 27.2043ZM180.724 23.5376L178.97 21.7562C177.248 23.4518 176.705 25.7593 176.555 26.8697L179.032 27.2043L181.51 27.5389C181.547 27.262 181.64 26.8299 181.817 26.3852C181.996 25.9358 182.224 25.5698 182.478 25.319L180.724 23.5376ZM185.32 21.8561L185.414 19.3578C183.329 19.2797 180.957 19.7994 178.97 21.7562L180.724 23.5376L182.478 25.319C183.242 24.5668 184.138 24.3135 185.226 24.3543L185.32 21.8561ZM215.792 25.4582L216.34 23.019C199.285 19.1878 188.768 19.181 185.196 19.3592L185.32 21.8561L185.445 24.353C188.551 24.1981 198.616 24.162 215.244 27.8974L215.792 25.4582ZM215.608 54.0559L215.425 51.5625C207.029 52.1758 197.196 51.1901 187.895 50.2507L187.644 52.7381L187.393 55.2254C196.58 56.1533 206.875 57.2004 215.79 56.5492L215.608 54.0559ZM217.271 52.8817L215.431 51.1895C215.316 51.3145 215.236 51.4009 215.157 51.4796C215.083 51.5547 215.032 51.5995 214.997 51.6269C214.935 51.6758 214.965 51.6378 215.06 51.6165L215.608 54.0559L216.155 56.4952C217.767 56.1333 218.752 54.9646 219.111 54.5738L217.271 52.8817ZM217.704 52.4342L216.011 50.5951C215.776 50.8112 215.562 51.0466 215.431 51.1895L217.271 52.8817L219.111 54.5738C219.275 54.3959 219.344 54.3224 219.398 54.2733L217.704 52.4342ZM218.498 49.8898C216.029 49.5018 216.029 49.5016 216.029 49.5013C216.029 49.5013 216.029 49.5011 216.029 49.5009C216.029 49.5007 216.029 49.5004 216.029 49.5002C216.029 49.4998 216.029 49.4995 216.029 49.4994C216.029 49.499 216.029 49.4991 216.029 49.4996C216.029 49.5007 216.028 49.5035 216.028 49.5079C216.026 49.5168 216.024 49.5322 216.02 49.5533C216.013 49.5955 216.001 49.66 215.986 49.7405C215.955 49.9039 215.911 50.1216 215.855 50.3481C215.798 50.5819 215.739 50.7844 215.685 50.9312C215.609 51.1392 215.617 51.0351 215.78 50.8381L217.704 52.4342L219.628 54.0304C220.035 53.5402 220.263 52.9716 220.382 52.6475C220.522 52.2623 220.631 51.8654 220.712 51.5363C220.794 51.1999 220.857 50.8915 220.899 50.6694C220.92 50.5571 220.937 50.464 220.948 50.3969C220.954 50.3633 220.958 50.336 220.962 50.3159C220.963 50.3059 220.965 50.2976 220.966 50.2912C220.966 50.288 220.967 50.2853 220.967 50.2831C220.967 50.282 220.967 50.281 220.968 50.2801C220.968 50.2796 220.968 50.2792 220.968 50.2788C220.968 50.2787 220.968 50.2784 220.968 50.2783C220.968 50.2781 220.968 50.2778 218.498 49.8898ZM219.476 28.7396L216.979 28.6241L216.001 49.7743L218.498 49.8898L220.996 50.0053L221.974 28.8551L219.476 28.7396ZM218.335 25.8688L216.481 27.5462C216.609 27.6876 216.76 27.9792 216.872 28.3854C216.922 28.5653 216.952 28.7248 216.969 28.8338C216.978 28.8872 216.982 28.9253 216.984 28.9441C216.986 28.9534 216.986 28.9576 216.986 28.9562C216.986 28.9554 216.986 28.9533 216.985 28.9497C216.985 28.9479 216.985 28.9457 216.985 28.9431C216.985 28.9418 216.984 28.9404 216.984 28.9389C216.984 28.9382 216.984 28.9374 216.984 28.9366C216.984 28.9362 216.984 28.9356 216.984 28.9354C216.984 28.9348 216.984 28.9342 219.476 28.7396C221.969 28.545 221.969 28.5444 221.969 28.5437C221.969 28.5435 221.969 28.5428 221.969 28.5424C221.968 28.5415 221.968 28.5406 221.968 28.5396C221.968 28.5377 221.968 28.5357 221.968 28.5335C221.967 28.5292 221.967 28.5245 221.967 28.5193C221.966 28.509 221.965 28.4968 221.963 28.4829C221.961 28.4552 221.957 28.4204 221.952 28.3794C221.943 28.2975 221.929 28.1893 221.909 28.0602C221.869 27.8043 221.802 27.454 221.692 27.055C221.484 26.303 221.065 25.1593 220.189 24.1915L218.335 25.8688ZM215.201 24.4835C214.915 26.9671 214.915 26.9671 214.914 26.967C214.914 26.967 214.913 26.9669 214.913 26.9669C214.912 26.9668 214.911 26.9667 214.91 26.9666C214.909 26.9664 214.908 26.9662 214.906 26.9661C214.904 26.9658 214.902 26.9655 214.9 26.9653C214.896 26.9649 214.895 26.9646 214.894 26.9646C214.894 26.9645 214.899 26.9653 214.911 26.967C214.933 26.9704 214.977 26.9775 215.038 26.9895C215.162 27.0138 215.344 27.0556 215.551 27.1214C216.004 27.2656 216.386 27.4644 216.611 27.6792L218.335 25.8688L220.059 24.0585C219.061 23.1077 217.875 22.6139 217.067 22.3568C216.643 22.222 216.271 22.136 215.999 22.0826C215.862 22.0558 215.747 22.0366 215.66 22.0235C215.617 22.0169 215.58 22.0118 215.551 22.0079C215.537 22.006 215.524 22.0044 215.513 22.0031C215.508 22.0024 215.503 22.0018 215.498 22.0013C215.496 22.001 215.494 22.0008 215.492 22.0005C215.491 22.0004 215.49 22.0003 215.489 22.0002C215.489 22.0001 215.488 22.0001 215.488 22C215.487 22 215.487 21.9999 215.201 24.4835ZM185.136 20.3478L184.968 22.8422C192.71 23.3632 205.503 24.4171 214.54 26.8946L215.201 24.4835L215.862 22.0725C206.269 19.4426 192.988 18.3706 185.304 17.8535L185.136 20.3478ZM215.201 21.9263L215.585 19.456C206.803 18.0903 202.048 17.3867 185.068 17.8487L185.136 20.3478L185.204 22.8469C201.869 22.3935 206.321 23.0755 214.817 24.3966L215.201 21.9263ZM215.534 21.9657L215.818 19.4818C215.694 19.4677 215.599 19.4568 215.516 19.4463L215.201 21.9263L214.886 24.4064C215.006 24.4217 215.135 24.4363 215.251 24.4496L215.534 21.9657ZM221.168 24.365L222.944 22.6057C220.32 19.9568 217.167 19.6358 215.818 19.4818L215.534 21.9657L215.251 24.4496C216.542 24.597 218.093 24.813 219.392 26.1243L221.168 24.365ZM222.839 28.7396C225.337 28.8272 225.337 28.8263 225.337 28.8254C225.337 28.8251 225.337 28.8242 225.337 28.8236C225.337 28.8224 225.337 28.8211 225.337 28.8198C225.337 28.8172 225.337 28.8144 225.338 28.8114C225.338 28.8055 225.338 28.7989 225.338 28.7917C225.338 28.7772 225.339 28.7601 225.339 28.7404C225.339 28.7011 225.34 28.6515 225.339 28.5926C225.337 28.475 225.332 28.3188 225.319 28.1315C225.293 27.7593 225.234 27.25 225.102 26.6667C224.843 25.5244 224.266 23.9405 222.944 22.6057L221.168 24.365L219.392 26.1243C219.831 26.5682 220.09 27.1717 220.226 27.772C220.291 28.06 220.319 28.3108 220.331 28.4809C220.337 28.5648 220.339 28.6253 220.339 28.6566C220.339 28.6721 220.339 28.68 220.339 28.6796C220.339 28.6794 220.339 28.6771 220.34 28.6725C220.34 28.6702 220.34 28.6674 220.34 28.664C220.34 28.6623 220.34 28.6604 220.34 28.6584C220.34 28.6574 220.34 28.6564 220.34 28.6553C220.34 28.6548 220.34 28.654 220.34 28.6537C220.34 28.6529 220.34 28.652 222.839 28.7396ZM221.771 50.7017L224.269 50.823L225.336 28.8609L222.839 28.7396L220.342 28.6183L219.274 50.5804L221.771 50.7017ZM221.749 50.8744L224.228 51.198C224.236 51.1348 224.243 51.0829 224.249 51.0364L221.771 50.7017L219.294 50.367C219.286 50.4266 219.278 50.4901 219.27 50.5507L221.749 50.8744ZM220.284 54.9227L222.038 56.7041C223.03 55.7276 223.515 54.4691 223.776 53.5534C224.048 52.5962 224.165 51.6788 224.228 51.1981L221.749 50.8744L219.27 50.5506C219.205 51.0467 219.126 51.6246 218.967 52.1829C218.796 52.7828 218.612 53.06 218.53 53.1413L220.284 54.9227ZM215.608 56.9011L215.514 59.3994C217.875 59.4878 220.237 58.4775 222.038 56.7041L220.284 54.9227L218.53 53.1413C217.58 54.0768 216.513 54.4333 215.701 54.4029L215.608 56.9011ZM185.136 52.4859L184.678 54.9435C191.993 56.3073 209.754 58.8965 215.389 59.3915L215.608 56.9011L215.826 54.4107C210.402 53.9342 192.809 51.3733 185.594 50.0282L185.136 52.4859ZM187.644 52.7381L187.895 50.2507C187.052 50.1656 186.214 50.0809 185.384 49.9982L185.136 52.4859L184.888 54.9736C185.714 55.0559 186.549 55.1402 187.393 55.2254L187.644 52.7381Z" fill="#EDF3FF" mask="url(#path-2-outside-2_462_266)"/>
<g filter="url(#filter1_d_462_266)">
<path d="M185.322 24.638C194.06 23.6038 205.215 24.4515 215.8 25.5772C198.955 21.7939 188.661 21.8085 185.322 21.975C183.735 21.9156 182.101 22.3021 180.725 23.6565C179.582 24.7813 179.153 26.4327 179.032 27.3232L177.883 49.3232C177.883 49.3232 177.883 52.1076 179.645 53.8863C181.785 56.0464 184.505 55.9249 185.728 56.0803C194.227 56.918 211.131 57.142 211.131 57.142C211.131 57.142 194.175 55.6095 185.183 53.5267C185.183 53.5267 183.676 53.2731 182.452 52.1076C181.448 50.9984 181.318 49.3232 181.318 49.3232L182.352 28.2004C182.352 28.2004 182.707 26.3157 183.544 25.545C184.117 25.0175 184.243 24.8224 185.322 24.638Z" fill="#ED3237"/>
</g>
<g filter="url(#filter2_d_462_266)">
<path fill-rule="evenodd" clip-rule="evenodd" d="M214.778 6.95568C214.337 6.61833 214.078 6.06709 214.142 5.47619C214.239 4.57371 215.051 3.92049 215.956 4.01718C216.862 4.11387 217.517 4.92386 217.42 5.82634C217.323 6.72882 216.51 7.38205 215.605 7.28536C215.367 7.25986 215.145 7.18479 214.951 7.0715L204.627 19.7099L201.97 19.426L214.778 6.95568Z" fill="#3E4095"/>
</g>
<g filter="url(#filter3_d_462_266)">
<path fill-rule="evenodd" clip-rule="evenodd" d="M189.452 5.66616C189.926 5.37751 190.242 4.85691 190.242 4.26263C190.242 3.35498 189.504 2.61919 188.594 2.61919C187.684 2.61919 186.946 3.35498 186.946 4.26263C186.946 5.17028 187.684 5.90607 188.594 5.90607C188.834 5.90607 189.062 5.85492 189.268 5.76296L198.182 19.426H200.855L189.452 5.66616Z" fill="#3E4095"/>
</g>
<g filter="url(#filter4_d_462_266)">
<path d="M215.615 54.1745C206.167 54.8645 195.043 53.5911 185.137 52.6046C192.403 53.959 210.084 56.534 215.615 57.0198C217.202 57.0792 218.916 56.3958 220.292 55.0414C221.435 53.9166 221.66 51.7109 221.78 50.8204L222.847 28.8585C222.847 28.8585 222.938 26.2628 221.176 24.484C219.036 22.3239 216.431 22.2008 215.208 22.0453C206.567 20.7019 201.963 20.0091 185.137 20.4668C192.852 20.9859 205.892 22.0489 215.208 24.6025C215.208 24.6025 217.119 24.8222 218.343 25.9878C219.347 27.097 219.484 28.8585 219.484 28.8585L218.506 50.0085C218.506 50.0085 218.198 51.9668 217.712 52.5529C217.139 53.0804 216.597 53.9542 215.615 54.1745Z" fill="#3E4095"/>
</g>
<g filter="url(#filter5_d_462_266)">
<path d="M194.534 46.2423C194.501 46.6666 194.325 47.0189 194.004 47.2991C193.697 47.58 193.331 47.7115 192.905 47.6938C192.479 47.6614 192.126 47.4925 191.844 47.1872C191.563 46.8672 191.431 46.4947 191.449 46.0698C191.483 45.6161 191.563 43.5423 191.688 39.8483C191.756 37.8694 191.855 36.2147 191.984 34.8843C190.808 34.8353 189.816 34.8013 189.007 34.7823C188.581 34.7646 188.22 34.6027 187.923 34.2968C187.642 33.9915 187.502 33.626 187.505 33.2005C187.523 32.7755 187.685 32.4226 187.991 32.1418C188.298 31.8463 188.665 31.7001 189.092 31.7032C190.018 31.7271 191.54 31.7831 193.656 31.8712C195.773 31.9447 197.295 32.0008 198.221 32.0393C198.647 32.0571 199.008 32.2189 199.304 32.5249C199.601 32.8308 199.74 33.1962 199.722 33.6212C199.72 34.0321 199.565 34.3926 199.257 34.7028C198.95 34.9983 198.591 35.1375 198.18 35.1203C197.254 35.0818 196.217 35.0459 195.07 35.0128C194.944 36.2847 194.845 37.932 194.775 39.9548C194.648 43.6928 194.568 45.7886 194.534 46.2423Z" fill="#373435"/>
<path d="M206.69 48.2899C206.286 48.4492 205.889 48.44 205.498 48.2623C205.108 48.0846 204.841 47.8019 204.695 47.4141C204.177 46.0568 203.717 44.7458 203.314 43.4812L201.792 38.6837C201.116 36.5564 200.64 35.076 200.366 34.2425C200.25 33.8414 200.289 33.454 200.481 33.0803C200.674 32.692 200.972 32.4402 201.374 32.3248C201.777 32.1948 202.166 32.2257 202.541 32.4174C202.93 32.6098 203.19 32.9069 203.32 33.3086L204.823 38.0173C205.431 40.0243 205.919 41.5713 206.285 42.6582C207.862 38.7604 209.19 35.7036 210.269 33.488C210.447 33.1137 210.737 32.8542 211.141 32.7096C211.545 32.5649 211.934 32.5884 212.308 32.7802C212.698 32.9579 212.966 33.248 213.111 33.6504C213.256 34.0528 213.232 34.4481 213.039 34.8364C212.301 36.303 211.653 37.6999 211.097 39.0272L209.228 43.5734C208.538 45.2915 208.014 46.5615 207.655 47.3833C207.508 47.7441 207.261 48.0054 206.916 48.1672C206.84 48.2228 206.765 48.2637 206.69 48.2899Z" fill="#373435"/>
<path d="M189.118 30.7031C190.053 30.7273 191.581 30.7839 193.698 30.8721L193.697 30.873C195.811 30.9464 197.333 31.0014 198.262 31.04C198.944 31.0685 199.548 31.3388 200.023 31.8291C200.053 31.8601 200.08 31.8938 200.108 31.9258C200.373 31.6742 200.694 31.486 201.067 31.374C201.071 31.3727 201.075 31.3714 201.08 31.3701C201.086 31.3683 201.092 31.3651 201.098 31.3633V31.3652C201.737 31.1672 202.383 31.2191 202.982 31.5215L202.983 31.5205C203.528 31.79 203.94 32.2106 204.179 32.7578L204.271 33L204.273 33.0049L205.776 37.7129L205.779 37.7207L205.781 37.7275C206.003 38.4625 206.21 39.134 206.4 39.7432C207.535 37.0169 208.526 34.7842 209.371 33.0498C209.667 32.4326 210.164 31.9979 210.803 31.7686C211.447 31.5378 212.108 31.5691 212.722 31.8701C212.728 31.8727 212.734 31.8763 212.74 31.8789C212.748 31.8829 212.756 31.8856 212.764 31.8896L212.763 31.8906C213.377 32.1822 213.821 32.6693 214.052 33.3115C214.291 33.9743 214.247 34.6526 213.935 35.2812L213.932 35.2861C213.203 36.7347 212.565 38.1109 212.019 39.4141L210.153 43.9541C209.463 45.6699 208.936 46.9487 208.572 47.7832L208.571 47.7822C208.343 48.3272 207.956 48.7522 207.433 49.0234C207.32 49.0994 207.194 49.1667 207.055 49.2187L207.056 49.2207C207.049 49.2235 207.042 49.2248 207.035 49.2275C207.03 49.2292 207.026 49.2318 207.021 49.2334L207.02 49.2324C206.378 49.4753 205.712 49.4584 205.083 49.1719C204.462 48.8887 204.001 48.4104 203.758 47.7656V47.7646C203.236 46.3936 202.77 45.0671 202.361 43.7852V43.7832L200.839 38.9863C200.388 37.5659 200.025 36.4364 199.753 35.5957C199.294 35.9597 198.744 36.1444 198.138 36.1191C197.477 36.0916 196.759 36.0668 195.984 36.042C195.926 36.7761 195.875 37.6127 195.832 38.5527L195.775 39.9893C195.648 43.7112 195.566 45.8367 195.531 46.3164V46.3184C195.478 47.0044 195.18 47.6003 194.662 48.0527L194.661 48.0508C194.157 48.5047 193.538 48.7214 192.864 48.6934L192.846 48.6924L192.83 48.6904C192.16 48.6394 191.567 48.362 191.109 47.8652L191.101 47.8564L191.093 47.8467C190.643 47.3338 190.421 46.7106 190.45 46.0283L190.451 46.0117L190.452 45.9961C190.483 45.5686 190.562 43.5241 190.688 39.8145V39.8135C190.74 38.3103 190.81 36.9861 190.898 35.8428C190.172 35.8157 189.534 35.7952 188.984 35.7822H188.974L188.965 35.7812C188.284 35.7528 187.68 35.4825 187.205 34.9922L187.197 34.9834L187.188 34.9746C186.73 34.4778 186.501 33.8656 186.505 33.1934V33.1758L186.506 33.1582C186.535 32.4833 186.803 31.8856 187.298 31.4229L187.297 31.4219C187.3 31.4193 187.304 31.4176 187.307 31.415C187.31 31.4121 187.313 31.4073 187.316 31.4043L187.317 31.4053C187.809 30.9395 188.42 30.6982 189.099 30.7031H189.118Z" stroke="#EDF3FF" stroke-width="2"/>
</g>
<defs>
<filter id="filter0_d_462_266" x="0" y="22.406" width="177.167" height="32.6667" filterUnits="userSpaceOnUse" color-interpolation-filters="sRGB">
<feFlood flood-opacity="0" result="BackgroundImageFix"/>
<feColorMatrix in="SourceAlpha" type="matrix" values="0 0 0 0 0 0 0 0 0 0 0 0 0 0 0 0 0 0 127 0" result="hardAlpha"/>
<feOffset/>
<feGaussianBlur stdDeviation="0.25"/>
<feComposite in2="hardAlpha" operator="out"/>
<feColorMatrix type="matrix" values="0 0 0 0 0.243137 0 0 0 0 0.262745 0 0 0 0 0.278431 0 0 0 1 0"/>
<feBlend mode="normal" in2="BackgroundImageFix" result="effect1_dropShadow_462_266"/>
<feBlend mode="normal" in="SourceGraphic" in2="effect1_dropShadow_462_266" result="shape"/>
</filter>
<filter id="filter1_d_462_266" x="177.883" y="21.9211" width="37.9165" height="35.2209" filterUnits="userSpaceOnUse" color-interpolation-filters="sRGB">
<feFlood flood-opacity="0" result="BackgroundImageFix"/>
<feColorMatrix in="SourceAlpha" type="matrix" values="0 0 0 0 0 0 0 0 0 0 0 0 0 0 0 0 0 0 127 0" result="hardAlpha"/>
<feOffset/>
<feComposite in2="hardAlpha" operator="out"/>
<feColorMatrix type="matrix" values="0 0 0 0 0 0 0 0 0 0 0 0 0 0 0 0 0 0 0.25 0"/>
<feBlend mode="normal" in2="BackgroundImageFix" result="effect1_dropShadow_462_266"/>
<feBlend mode="normal" in="SourceGraphic" in2="effect1_dropShadow_462_266" result="shape"/>
</filter>
<filter id="filter2_d_462_266" x="201.97" y="4.00769" width="15.4595" height="15.7022" filterUnits="userSpaceOnUse" color-interpolation-filters="sRGB">
<feFlood flood-opacity="0" result="BackgroundImageFix"/>
<feColorMatrix in="SourceAlpha" type="matrix" values="0 0 0 0 0 0 0 0 0 0 0 0 0 0 0 0 0 0 127 0" result="hardAlpha"/>
<feOffset/>
<feComposite in2="hardAlpha" operator="out"/>
<feColorMatrix type="matrix" values="0 0 0 0 0 0 0 0 0 0 0 0 0 0 0 0 0 0 0.25 0"/>
<feBlend mode="normal" in2="BackgroundImageFix" result="effect1_dropShadow_462_266"/>
<feBlend mode="normal" in="SourceGraphic" in2="effect1_dropShadow_462_266" result="shape"/>
</filter>
<filter id="filter3_d_462_266" x="186.946" y="2.61919" width="13.9092" height="16.8068" filterUnits="userSpaceOnUse" color-interpolation-filters="sRGB">
<feFlood flood-opacity="0" result="BackgroundImageFix"/>
<feColorMatrix in="SourceAlpha" type="matrix" values="0 0 0 0 0 0 0 0 0 0 0 0 0 0 0 0 0 0 127 0" result="hardAlpha"/>
<feOffset/>
<feComposite in2="hardAlpha" operator="out"/>
<feColorMatrix type="matrix" values="0 0 0 0 0 0 0 0 0 0 0 0 0 0 0 0 0 0 0.25 0"/>
<feBlend mode="normal" in2="BackgroundImageFix" result="effect1_dropShadow_462_266"/>
<feBlend mode="normal" in="SourceGraphic" in2="effect1_dropShadow_462_266" result="shape"/>
</filter>
<filter id="filter4_d_462_266" x="185.137" y="20.3261" width="37.7114" height="36.6973" filterUnits="userSpaceOnUse" color-interpolation-filters="sRGB">
<feFlood flood-opacity="0" result="BackgroundImageFix"/>
<feColorMatrix in="SourceAlpha" type="matrix" values="0 0 0 0 0 0 0 0 0 0 0 0 0 0 0 0 0 0 127 0" result="hardAlpha"/>
<feOffset/>
<feComposite in2="hardAlpha" operator="out"/>
<feColorMatrix type="matrix" values="0 0 0 0 0 0 0 0 0 0 0 0 0 0 0 0 0 0 0.25 0"/>
<feBlend mode="normal" in2="BackgroundImageFix" result="effect1_dropShadow_462_266"/>
<feBlend mode="normal" in="SourceGraphic" in2="effect1_dropShadow_462_266" result="shape"/>
</filter>
<filter id="filter5_d_462_266" x="185.205" y="29.4031" width="30.2992" height="21.2997" filterUnits="userSpaceOnUse" color-interpolation-filters="sRGB">
<feFlood flood-opacity="0" result="BackgroundImageFix"/>
<feColorMatrix in="SourceAlpha" type="matrix" values="0 0 0 0 0 0 0 0 0 0 0 0 0 0 0 0 0 0 127 0" result="hardAlpha"/>
<feOffset/>
<feGaussianBlur stdDeviation="0.15"/>
<feComposite in2="hardAlpha" operator="out"/>
<feColorMatrix type="matrix" values="0 0 0 0 0 0 0 0 0 0 0 0 0 0 0 0 0 0 1 0"/>
<feBlend mode="normal" in2="BackgroundImageFix" result="effect1_dropShadow_462_266"/>
<feBlend mode="normal" in="SourceGraphic" in2="effect1_dropShadow_462_266" result="shape"/>
</filter>
</defs>
</svg>
