<svg width="58" height="57" viewBox="0 0 58 57" fill="none" xmlns="http://www.w3.org/2000/svg">
<g filter="url(#filter0_d_443_1102)">
<rect x="5.5" y="3.5" width="47" height="46" rx="23" stroke="CurrentColor" shape-rendering="crispEdges"/>
<path d="M37.25 24.1792C35.5543 24.1834 33.9003 23.6402 32.5214 22.6264V29.6968C32.521 31.0063 32.1313 32.2844 31.4045 33.3603C30.6777 34.4362 29.6485 35.2585 28.4544 35.7173C27.2603 36.1762 25.9583 36.2496 24.7225 35.9279C23.4867 35.6062 22.3759 34.9046 21.5388 33.9169C20.7017 32.9293 20.178 31.7027 20.0379 30.4011C19.8978 29.0995 20.1479 27.7851 20.7548 26.6334C21.3616 25.4818 22.2963 24.5479 23.4338 23.9566C24.5714 23.3654 25.8576 23.1449 27.1204 23.3247V26.8808C26.5425 26.6941 25.922 26.6997 25.3474 26.8969C24.7728 27.094 24.2736 27.4726 23.921 27.9786C23.5684 28.4845 23.3805 29.092 23.384 29.7142C23.3876 30.3364 23.5825 30.9416 23.9409 31.4432C24.2993 31.9449 24.8028 32.3174 25.3796 32.5076C25.9564 32.6978 26.5769 32.6959 27.1526 32.5022C27.7283 32.3085 28.2297 31.9329 28.5852 31.4291C28.9407 30.9253 29.1321 30.319 29.1321 29.6968V15.875H32.5214C32.5191 16.169 32.5431 16.4626 32.5931 16.7521C32.7109 17.3983 32.9557 18.013 33.3128 18.5587C33.6698 19.1044 34.1314 19.5695 34.6695 19.9256C35.4349 20.4455 36.3323 20.7226 37.25 20.7224V24.1792Z" fill="CurrentColor"/>
</g>
<defs>
<filter id="filter0_d_443_1102" x="0" y="0" width="58" height="57" filterUnits="userSpaceOnUse" color-interpolation-filters="sRGB">
<feFlood flood-opacity="0" result="BackgroundImageFix"/>
<feColorMatrix in="SourceAlpha" type="matrix" values="0 0 0 0 0 0 0 0 0 0 0 0 0 0 0 0 0 0 127 0" result="hardAlpha"/>
<feOffset dy="2"/>
<feGaussianBlur stdDeviation="2.5"/>
<feComposite in2="hardAlpha" operator="out"/>
<feColorMatrix type="matrix" values="0 0 0 0 0.0627451 0 0 0 0 0.0941176 0 0 0 0 0.156863 0 0 0 0.12 0"/>
<feBlend mode="normal" in2="BackgroundImageFix" result="effect1_dropShadow_443_1102"/>
<feBlend mode="normal" in="SourceGraphic" in2="effect1_dropShadow_443_1102" result="shape"/>
</filter>
</defs>
</svg>
